<svg xmlns="http://www.w3.org/2000/svg" xmlns:xlink="http://www.w3.org/1999/xlink" width="793" zoomAndPan="magnify" viewBox="0 0 595.5 141.750002" height="188" preserveAspectRatio="xMidYMid meet" version="1.0"><defs><g/><clipPath id="bc6bdba155"><path d="M 13.550781 4.410156 L 80 4.410156 L 80 136 L 13.550781 136 Z M 13.550781 4.410156 " clip-rule="nonzero"/></clipPath><clipPath id="f8fa8ae2df"><path d="M 87 5 L 153.414062 5 L 153.414062 136.796875 L 87 136.796875 Z M 87 5 " clip-rule="nonzero"/></clipPath></defs><g clip-path="url(#bc6bdba155)"><path fill="#03989e" d="M 78.601562 78.894531 Z M 48.410156 69.039062 Z M 79.046875 14.25 Z M 56.214844 6.050781 Z M 24.097656 101.011719 C 24.097656 108.804688 29.957031 115.257812 37.507812 116.242188 C 38.578125 111.894531 40.84375 108 43.925781 104.929688 C 48.316406 100.558594 54.382812 97.851562 61.09375 97.851562 C 62.753906 97.851562 64.109375 99.199219 64.109375 100.851562 C 64.109375 102.507812 62.753906 103.855469 61.09375 103.855469 C 60.867188 103.855469 60.648438 103.855469 60.433594 103.863281 C 62.332031 106.164062 64.132812 109.664062 63.996094 114.625 C 63.949219 116.277344 62.5625 117.578125 60.910156 117.535156 C 59.25 117.488281 57.941406 116.105469 57.988281 114.464844 C 58.167969 108.011719 53.484375 105.65625 53.472656 105.644531 C 53.425781 105.621094 53.390625 105.597656 53.347656 105.574219 C 51.421875 106.46875 49.683594 107.703125 48.203125 109.175781 C 44.90625 112.460938 42.855469 117.003906 42.855469 122.019531 C 42.855469 122.949219 42.925781 123.855469 43.0625 124.738281 C 46.417969 131.339844 53.300781 135.878906 61.230469 135.878906 C 68.808594 135.878906 75.703125 131.722656 79.226562 125.03125 L 79.46875 124.578125 L 79.46875 79.652344 C 79.148438 79.449219 78.863281 79.199219 78.613281 78.871094 L 78.546875 78.792969 C 75.542969 74.5 71.082031 71.828125 66.304688 70.976562 C 65.679688 70.863281 65.050781 70.785156 64.414062 70.738281 C 63.140625 72.097656 61.925781 73.640625 61.046875 75.304688 C 60.171875 76.96875 59.671875 78.734375 59.910156 80.480469 C 60.136719 82.1875 58.933594 83.753906 57.226562 83.988281 C 55.507812 84.214844 53.9375 83.027344 53.699219 81.316406 C 53.265625 78.125 54.050781 75.121094 55.472656 72.425781 C 55.519531 72.335938 55.5625 72.246094 55.609375 72.167969 C 54.394531 72.675781 53.210938 73.320312 52.082031 74.101562 L 52.082031 74.089844 C 50.707031 75.042969 48.804688 74.75 47.792969 73.402344 C 46.757812 72.03125 47.03125 70.070312 48.417969 69.039062 L 48.511719 68.972656 C 54.234375 65.007812 61.035156 63.730469 67.40625 64.863281 C 71.800781 65.644531 75.984375 67.570312 79.46875 70.558594 L 79.46875 14.851562 C 79.308594 14.667969 79.171875 14.464844 79.058594 14.25 L 79.023438 14.195312 C 77 9.9375 73.4375 6.890625 69.320312 5.417969 C 65.199219 3.945312 60.5 4.035156 56.222656 6.050781 C 51.945312 8.066406 48.886719 11.613281 47.40625 15.710938 C 45.929688 19.8125 46.019531 24.488281 48.042969 28.746094 C 48.703125 30.152344 48.101562 31.828125 46.691406 32.496094 C 45.28125 33.152344 43.597656 32.550781 42.925781 31.148438 C 41.378906 27.886719 40.683594 24.433594 40.75 21.058594 C 30.613281 22.1875 22.707031 30.785156 22.707031 41.171875 C 22.707031 42.835938 22.914062 44.5 23.324219 46.109375 C 26.074219 45.6875 28.941406 45.8125 31.808594 46.539062 C 37.054688 47.886719 41.789062 51.226562 44.757812 56.242188 C 45.496094 57.488281 45.074219 59.085938 43.835938 59.824219 C 42.582031 60.558594 40.980469 60.140625 40.238281 58.90625 C 36.144531 51.996094 27.726562 49.289062 20.34375 52.359375 C 16.054688 57.035156 13.628906 63.175781 13.628906 69.699219 C 13.628906 79.121094 18.75 87.691406 26.882812 92.222656 C 25.085938 94.78125 24.109375 97.816406 24.109375 101.011719 Z M 24.097656 101.011719 " fill-opacity="1" fill-rule="evenodd"/></g><g clip-path="url(#f8fa8ae2df)"><path fill="#000000" d="M 88.363281 62.3125 Z M 118.558594 72.167969 Z M 87.921875 126.957031 Z M 110.753906 135.15625 Z M 142.871094 40.195312 C 142.871094 32.40625 137.011719 25.949219 129.457031 24.964844 C 128.386719 29.3125 126.125 33.207031 123.039062 36.277344 C 118.648438 40.648438 112.585938 43.355469 105.871094 43.355469 C 104.210938 43.355469 102.859375 42.007812 102.859375 40.355469 C 102.859375 38.703125 104.210938 37.355469 105.871094 37.355469 C 106.101562 37.355469 106.316406 37.355469 106.53125 37.34375 C 104.632812 35.042969 102.835938 31.542969 102.972656 26.582031 C 103.015625 24.929688 104.40625 23.628906 106.054688 23.671875 C 107.714844 23.71875 109.023438 25.101562 108.976562 26.742188 C 108.796875 33.199219 113.484375 35.554688 113.496094 35.5625 C 113.539062 35.585938 113.574219 35.609375 113.621094 35.632812 C 115.542969 34.726562 117.285156 33.503906 118.761719 32.03125 C 122.0625 28.746094 124.109375 24.207031 124.109375 19.1875 C 124.109375 18.257812 124.042969 17.355469 123.90625 16.46875 C 120.546875 9.867188 113.664062 5.328125 105.746094 5.328125 C 98.171875 5.328125 91.277344 9.484375 87.75 16.175781 L 87.511719 16.628906 L 87.511719 61.554688 C 87.828125 61.746094 88.113281 62.007812 88.351562 62.335938 L 88.433594 62.425781 C 91.433594 66.71875 95.894531 69.390625 100.671875 70.242188 C 101.300781 70.355469 101.925781 70.433594 102.5625 70.480469 C 103.835938 69.132812 105.054688 67.578125 105.929688 65.914062 C 106.804688 64.25 107.304688 62.484375 107.066406 60.738281 C 106.839844 59.03125 108.035156 57.464844 109.753906 57.230469 C 111.46875 57.003906 113.039062 58.203125 113.277344 59.902344 C 113.710938 63.09375 112.925781 66.097656 111.503906 68.792969 C 111.457031 68.882812 111.414062 68.972656 111.355469 69.0625 C 112.574219 68.554688 113.757812 67.910156 114.894531 67.125 L 114.90625 67.136719 C 116.28125 66.1875 118.183594 66.480469 119.195312 67.828125 C 120.230469 69.199219 119.957031 71.160156 118.570312 72.1875 L 118.476562 72.257812 C 112.753906 76.222656 105.953125 77.5 99.582031 76.367188 C 95.191406 75.585938 91.003906 73.660156 87.523438 70.671875 L 87.523438 126.378906 C 87.679688 126.558594 87.816406 126.765625 87.929688 126.980469 L 87.964844 127.035156 C 89.992188 131.292969 93.550781 134.339844 97.671875 135.8125 C 101.789062 137.285156 106.488281 137.195312 110.765625 135.179688 C 115.042969 133.164062 118.101562 129.617188 119.582031 125.519531 C 121.0625 121.417969 120.96875 116.742188 118.945312 112.484375 C 118.273438 111.078125 118.875 109.402344 120.296875 108.746094 C 121.710938 108.078125 123.394531 108.691406 124.0625 110.09375 C 125.613281 113.355469 126.304688 116.808594 126.238281 120.183594 C 136.375 119.050781 144.28125 110.457031 144.28125 100.070312 C 144.28125 98.40625 144.074219 96.742188 143.667969 95.132812 C 140.914062 95.550781 138.046875 95.429688 135.179688 94.703125 C 129.933594 93.355469 125.203125 90.015625 122.234375 85.007812 C 121.492188 83.761719 121.914062 82.167969 123.152344 81.429688 C 124.40625 80.695312 126.007812 81.113281 126.75 82.347656 C 130.84375 89.257812 139.261719 91.960938 146.648438 88.894531 C 150.925781 84.214844 153.359375 78.078125 153.359375 71.554688 C 153.359375 62.132812 148.238281 53.558594 140.105469 49.03125 C 141.902344 46.46875 142.871094 43.433594 142.871094 40.242188 Z M 142.871094 40.195312 " fill-opacity="1" fill-rule="evenodd"/></g><g fill="#272f3c" fill-opacity="1"><g transform="translate(156.80075, 64.51126)"><g><path d="M 12.484375 0 L 7.015625 -17.84375 L 6.875 -17.84375 C 7.070312 -14.207031 7.171875 -11.785156 7.171875 -10.578125 L 7.171875 0 L 2.859375 0 L 2.859375 -22.75 L 9.421875 -22.75 L 14.8125 -5.34375 L 14.90625 -5.34375 L 20.609375 -22.75 L 27.171875 -22.75 L 27.171875 0 L 22.6875 0 L 22.6875 -10.765625 C 22.6875 -11.273438 22.691406 -11.859375 22.703125 -12.515625 C 22.722656 -13.179688 22.796875 -14.945312 22.921875 -17.8125 L 22.78125 -17.8125 L 16.90625 0 Z M 12.484375 0 "/></g></g></g><g fill="#272f3c" fill-opacity="1"><g transform="translate(188.463279, 64.51126)"><g><path d="M 2.859375 0 L 2.859375 -22.75 L 7.6875 -22.75 L 7.6875 0 Z M 2.859375 0 "/></g></g></g><g fill="#272f3c" fill-opacity="1"><g transform="translate(200.63498, 64.51126)"><g><path d="M 23.03125 0 L 16.90625 0 L 7.015625 -17.203125 L 6.875 -17.203125 C 7.070312 -14.160156 7.171875 -11.992188 7.171875 -10.703125 L 7.171875 0 L 2.859375 0 L 2.859375 -22.75 L 8.9375 -22.75 L 18.828125 -5.703125 L 18.9375 -5.703125 C 18.78125 -8.660156 18.703125 -10.753906 18.703125 -11.984375 L 18.703125 -22.75 L 23.03125 -22.75 Z M 23.03125 0 "/></g></g></g><g fill="#272f3c" fill-opacity="1"><g transform="translate(228.159793, 64.51126)"><g><path d="M 21.734375 -11.59375 C 21.734375 -7.84375 20.664062 -4.972656 18.53125 -2.984375 C 16.40625 -0.992188 13.328125 0 9.296875 0 L 2.859375 0 L 2.859375 -22.75 L 10 -22.75 C 13.71875 -22.75 16.601562 -21.765625 18.65625 -19.796875 C 20.707031 -17.835938 21.734375 -15.101562 21.734375 -11.59375 Z M 16.71875 -11.46875 C 16.71875 -16.351562 14.5625 -18.796875 10.25 -18.796875 L 7.6875 -18.796875 L 7.6875 -3.984375 L 9.75 -3.984375 C 14.394531 -3.984375 16.71875 -6.476562 16.71875 -11.46875 Z M 16.71875 -11.46875 "/></g></g></g><g fill="#272f3c" fill-opacity="1"><g transform="translate(253.366857, 64.51126)"><g/></g></g><g fill="#272f3c" fill-opacity="1"><g transform="translate(263.267475, 64.51126)"><g><path d="M 2.859375 -22.75 L 9.9375 -22.75 C 13.164062 -22.75 15.507812 -22.285156 16.96875 -21.359375 C 18.425781 -20.441406 19.15625 -18.984375 19.15625 -16.984375 C 19.15625 -15.628906 18.832031 -14.515625 18.1875 -13.640625 C 17.550781 -12.773438 16.707031 -12.253906 15.65625 -12.078125 L 15.65625 -11.921875 C 17.09375 -11.597656 18.128906 -10.992188 18.765625 -10.109375 C 19.398438 -9.234375 19.71875 -8.0625 19.71875 -6.59375 C 19.71875 -4.519531 18.96875 -2.898438 17.46875 -1.734375 C 15.976562 -0.578125 13.945312 0 11.375 0 L 2.859375 0 Z M 7.6875 -13.734375 L 10.484375 -13.734375 C 11.785156 -13.734375 12.726562 -13.9375 13.3125 -14.34375 C 13.90625 -14.75 14.203125 -15.414062 14.203125 -16.34375 C 14.203125 -17.21875 13.882812 -17.84375 13.25 -18.21875 C 12.613281 -18.601562 11.601562 -18.796875 10.21875 -18.796875 L 7.6875 -18.796875 Z M 7.6875 -9.90625 L 7.6875 -3.984375 L 10.828125 -3.984375 C 12.148438 -3.984375 13.128906 -4.234375 13.765625 -4.734375 C 14.398438 -5.242188 14.71875 -6.023438 14.71875 -7.078125 C 14.71875 -8.960938 13.367188 -9.90625 10.671875 -9.90625 Z M 7.6875 -9.90625 "/></g></g></g><g fill="#272f3c" fill-opacity="1"><g transform="translate(286.296787, 64.51126)"><g><path d="M 15.953125 0 L 2.859375 0 L 2.859375 -22.75 L 15.953125 -22.75 L 15.953125 -18.796875 L 7.6875 -18.796875 L 7.6875 -13.796875 L 15.390625 -13.796875 L 15.390625 -9.84375 L 7.6875 -9.84375 L 7.6875 -3.984375 L 15.953125 -3.984375 Z M 15.953125 0 "/></g></g></g><g fill="#272f3c" fill-opacity="1"><g transform="translate(305.763936, 64.51126)"><g><path d="M 23.03125 0 L 16.90625 0 L 7.015625 -17.203125 L 6.875 -17.203125 C 7.070312 -14.160156 7.171875 -11.992188 7.171875 -10.703125 L 7.171875 0 L 2.859375 0 L 2.859375 -22.75 L 8.9375 -22.75 L 18.828125 -5.703125 L 18.9375 -5.703125 C 18.78125 -8.660156 18.703125 -10.753906 18.703125 -11.984375 L 18.703125 -22.75 L 23.03125 -22.75 Z M 23.03125 0 "/></g></g></g><g fill="#272f3c" fill-opacity="1"><g transform="translate(333.288754, 64.51126)"><g><path d="M 21.734375 -11.59375 C 21.734375 -7.84375 20.664062 -4.972656 18.53125 -2.984375 C 16.40625 -0.992188 13.328125 0 9.296875 0 L 2.859375 0 L 2.859375 -22.75 L 10 -22.75 C 13.71875 -22.75 16.601562 -21.765625 18.65625 -19.796875 C 20.707031 -17.835938 21.734375 -15.101562 21.734375 -11.59375 Z M 16.71875 -11.46875 C 16.71875 -16.351562 14.5625 -18.796875 10.25 -18.796875 L 7.6875 -18.796875 L 7.6875 -3.984375 L 9.75 -3.984375 C 14.394531 -3.984375 16.71875 -6.476562 16.71875 -11.46875 Z M 16.71875 -11.46875 "/></g></g></g><g fill="#272f3c" fill-opacity="1"><g transform="translate(358.495812, 64.51126)"><g><path d="M 15.953125 0 L 2.859375 0 L 2.859375 -22.75 L 15.953125 -22.75 L 15.953125 -18.796875 L 7.6875 -18.796875 L 7.6875 -13.796875 L 15.390625 -13.796875 L 15.390625 -9.84375 L 7.6875 -9.84375 L 7.6875 -3.984375 L 15.953125 -3.984375 Z M 15.953125 0 "/></g></g></g><g fill="#272f3c" fill-opacity="1"><g transform="translate(377.962961, 64.51126)"><g><path d="M 7.6875 -12.640625 L 9.234375 -12.640625 C 10.765625 -12.640625 11.890625 -12.894531 12.609375 -13.40625 C 13.335938 -13.914062 13.703125 -14.71875 13.703125 -15.8125 C 13.703125 -16.882812 13.332031 -17.648438 12.59375 -18.109375 C 11.851562 -18.566406 10.703125 -18.796875 9.140625 -18.796875 L 7.6875 -18.796875 Z M 7.6875 -8.734375 L 7.6875 0 L 2.859375 0 L 2.859375 -22.75 L 9.484375 -22.75 C 12.578125 -22.75 14.863281 -22.1875 16.34375 -21.0625 C 17.832031 -19.9375 18.578125 -18.226562 18.578125 -15.9375 C 18.578125 -14.59375 18.207031 -13.398438 17.46875 -12.359375 C 16.726562 -11.316406 15.6875 -10.5 14.34375 -9.90625 C 17.757812 -4.789062 19.988281 -1.488281 21.03125 0 L 15.6875 0 L 10.25 -8.734375 Z M 7.6875 -8.734375 "/></g></g></g><g fill="#272f3c" fill-opacity="1"><g transform="translate(400.618945, 64.51126)"><g><path d="M 16.28125 -6.3125 C 16.28125 -4.257812 15.539062 -2.640625 14.0625 -1.453125 C 12.59375 -0.273438 10.539062 0.3125 7.90625 0.3125 C 5.476562 0.3125 3.332031 -0.144531 1.46875 -1.0625 L 1.46875 -5.53125 C 3 -4.851562 4.296875 -4.375 5.359375 -4.09375 C 6.421875 -3.8125 7.394531 -3.671875 8.28125 -3.671875 C 9.332031 -3.671875 10.140625 -3.875 10.703125 -4.28125 C 11.273438 -4.6875 11.5625 -5.285156 11.5625 -6.078125 C 11.5625 -6.523438 11.4375 -6.921875 11.1875 -7.265625 C 10.9375 -7.617188 10.566406 -7.957031 10.078125 -8.28125 C 9.597656 -8.601562 8.617188 -9.113281 7.140625 -9.8125 C 5.753906 -10.46875 4.710938 -11.09375 4.015625 -11.6875 C 3.316406 -12.289062 2.757812 -12.992188 2.34375 -13.796875 C 1.9375 -14.597656 1.734375 -15.53125 1.734375 -16.59375 C 1.734375 -18.601562 2.410156 -20.179688 3.765625 -21.328125 C 5.128906 -22.484375 7.015625 -23.0625 9.421875 -23.0625 C 10.609375 -23.0625 11.738281 -22.921875 12.8125 -22.640625 C 13.882812 -22.367188 15.003906 -21.976562 16.171875 -21.46875 L 14.625 -17.71875 C 13.40625 -18.21875 12.398438 -18.566406 11.609375 -18.765625 C 10.816406 -18.960938 10.035156 -19.0625 9.265625 -19.0625 C 8.359375 -19.0625 7.660156 -18.847656 7.171875 -18.421875 C 6.679688 -17.992188 6.4375 -17.4375 6.4375 -16.75 C 6.4375 -16.320312 6.535156 -15.953125 6.734375 -15.640625 C 6.929688 -15.328125 7.242188 -15.019531 7.671875 -14.71875 C 8.109375 -14.425781 9.128906 -13.894531 10.734375 -13.125 C 12.859375 -12.113281 14.3125 -11.097656 15.09375 -10.078125 C 15.882812 -9.054688 16.28125 -7.800781 16.28125 -6.3125 Z M 16.28125 -6.3125 "/></g></g></g><g fill="#272f3c" fill-opacity="1"><g transform="translate(419.790537, 64.51126)"><g/></g></g><g fill="#272f3c" fill-opacity="1"><g transform="translate(429.691155, 64.51126)"><g><path d="M 12.515625 -19.0625 C 10.703125 -19.0625 9.296875 -18.378906 8.296875 -17.015625 C 7.304688 -15.648438 6.8125 -13.75 6.8125 -11.3125 C 6.8125 -6.238281 8.710938 -3.703125 12.515625 -3.703125 C 14.117188 -3.703125 16.054688 -4.101562 18.328125 -4.90625 L 18.328125 -0.859375 C 16.460938 -0.078125 14.378906 0.3125 12.078125 0.3125 C 8.765625 0.3125 6.226562 -0.6875 4.46875 -2.6875 C 2.71875 -4.695312 1.84375 -7.582031 1.84375 -11.34375 C 1.84375 -13.707031 2.273438 -15.773438 3.140625 -17.546875 C 4.003906 -19.328125 5.238281 -20.691406 6.84375 -21.640625 C 8.457031 -22.585938 10.347656 -23.0625 12.515625 -23.0625 C 14.734375 -23.0625 16.957031 -22.53125 19.1875 -21.46875 L 17.625 -17.546875 C 16.769531 -17.953125 15.910156 -18.304688 15.046875 -18.609375 C 14.191406 -18.910156 13.347656 -19.0625 12.515625 -19.0625 Z M 12.515625 -19.0625 "/></g></g></g><g fill="#272f3c" fill-opacity="1"><g transform="translate(451.616057, 64.51126)"><g><path d="M 2.859375 0 L 2.859375 -22.75 L 7.6875 -22.75 L 7.6875 -3.984375 L 16.90625 -3.984375 L 16.90625 0 Z M 2.859375 0 "/></g></g></g><g fill="#272f3c" fill-opacity="1"><g transform="translate(471.23877, 64.51126)"><g><path d="M 21.375 -22.75 L 21.375 -8.03125 C 21.375 -6.34375 21 -4.867188 20.25 -3.609375 C 19.5 -2.347656 18.410156 -1.378906 16.984375 -0.703125 C 15.566406 -0.0234375 13.890625 0.3125 11.953125 0.3125 C 9.023438 0.3125 6.75 -0.4375 5.125 -1.9375 C 3.507812 -3.4375 2.703125 -5.488281 2.703125 -8.09375 L 2.703125 -22.75 L 7.515625 -22.75 L 7.515625 -8.828125 C 7.515625 -7.066406 7.863281 -5.773438 8.5625 -4.953125 C 9.269531 -4.140625 10.441406 -3.734375 12.078125 -3.734375 C 13.648438 -3.734375 14.789062 -4.144531 15.5 -4.96875 C 16.207031 -5.789062 16.5625 -7.082031 16.5625 -8.84375 L 16.5625 -22.75 Z M 21.375 -22.75 "/></g></g></g><g fill="#272f3c" fill-opacity="1"><g transform="translate(496.943599, 64.51126)"><g><path d="M 2.859375 -22.75 L 9.9375 -22.75 C 13.164062 -22.75 15.507812 -22.285156 16.96875 -21.359375 C 18.425781 -20.441406 19.15625 -18.984375 19.15625 -16.984375 C 19.15625 -15.628906 18.832031 -14.515625 18.1875 -13.640625 C 17.550781 -12.773438 16.707031 -12.253906 15.65625 -12.078125 L 15.65625 -11.921875 C 17.09375 -11.597656 18.128906 -10.992188 18.765625 -10.109375 C 19.398438 -9.234375 19.71875 -8.0625 19.71875 -6.59375 C 19.71875 -4.519531 18.96875 -2.898438 17.46875 -1.734375 C 15.976562 -0.578125 13.945312 0 11.375 0 L 2.859375 0 Z M 7.6875 -13.734375 L 10.484375 -13.734375 C 11.785156 -13.734375 12.726562 -13.9375 13.3125 -14.34375 C 13.90625 -14.75 14.203125 -15.414062 14.203125 -16.34375 C 14.203125 -17.21875 13.882812 -17.84375 13.25 -18.21875 C 12.613281 -18.601562 11.601562 -18.796875 10.21875 -18.796875 L 7.6875 -18.796875 Z M 7.6875 -9.90625 L 7.6875 -3.984375 L 10.828125 -3.984375 C 12.148438 -3.984375 13.128906 -4.234375 13.765625 -4.734375 C 14.398438 -5.242188 14.71875 -6.023438 14.71875 -7.078125 C 14.71875 -8.960938 13.367188 -9.90625 10.671875 -9.90625 Z M 7.6875 -9.90625 "/></g></g></g><g fill="#272f3c" fill-opacity="1"><g transform="translate(236.815149, 113.177234)"><g><path d="M 8.90625 -4.140625 C 8.90625 -2.765625 8.445312 -1.695312 7.53125 -0.9375 C 6.613281 -0.1875 5.328125 0.1875 3.671875 0.1875 C 2.984375 0.1875 2.378906 0.140625 1.859375 0.046875 C 1.335938 -0.046875 0.84375 -0.203125 0.375 -0.421875 L 0.375 -2.078125 C 1.425781 -1.523438 2.535156 -1.25 3.703125 -1.25 C 4.753906 -1.25 5.585938 -1.492188 6.203125 -1.984375 C 6.816406 -2.484375 7.125 -3.160156 7.125 -4.015625 C 7.125 -4.523438 6.953125 -4.972656 6.609375 -5.359375 C 6.273438 -5.742188 5.640625 -6.203125 4.703125 -6.734375 C 3.722656 -7.285156 3.039062 -7.835938 2.65625 -8.390625 C 2.28125 -8.941406 2.09375 -9.59375 2.09375 -10.34375 C 2.09375 -11.5625 2.519531 -12.550781 3.375 -13.3125 C 4.238281 -14.070312 5.367188 -14.453125 6.765625 -14.453125 C 7.410156 -14.453125 8.007812 -14.390625 8.5625 -14.265625 C 9.125 -14.148438 9.710938 -13.941406 10.328125 -13.640625 L 9.6875 -12.171875 C 9.25 -12.421875 8.765625 -12.617188 8.234375 -12.765625 C 7.703125 -12.910156 7.210938 -12.984375 6.765625 -12.984375 C 5.890625 -12.984375 5.1875 -12.753906 4.65625 -12.296875 C 4.132812 -11.847656 3.875 -11.238281 3.875 -10.46875 C 3.875 -10.113281 3.925781 -9.8125 4.03125 -9.5625 C 4.144531 -9.3125 4.320312 -9.070312 4.5625 -8.84375 C 4.800781 -8.625 5.265625 -8.316406 5.953125 -7.921875 C 6.898438 -7.347656 7.539062 -6.898438 7.875 -6.578125 C 8.21875 -6.253906 8.472656 -5.894531 8.640625 -5.5 C 8.816406 -5.113281 8.90625 -4.660156 8.90625 -4.140625 Z M 8.90625 -4.140625 "/></g></g></g><g fill="#272f3c" fill-opacity="1"><g transform="translate(246.841033, 113.177234)"><g><path d="M 7.109375 0 L 8.546875 -6.75 C 8.671875 -7.351562 8.734375 -7.789062 8.734375 -8.0625 C 8.734375 -9.019531 8.253906 -9.5 7.296875 -9.5 C 6.710938 -9.5 6.144531 -9.304688 5.59375 -8.921875 C 5.050781 -8.546875 4.566406 -7.988281 4.140625 -7.25 C 3.722656 -6.519531 3.410156 -5.640625 3.203125 -4.609375 L 2.21875 0 L 0.578125 0 L 3.796875 -15.171875 L 5.4375 -15.171875 C 5.3125 -14.640625 5.195312 -14.125 5.09375 -13.625 C 4.988281 -13.125 4.878906 -12.613281 4.765625 -12.09375 C 4.648438 -11.570312 4.523438 -11.03125 4.390625 -10.46875 C 4.253906 -9.90625 4.097656 -9.289062 3.921875 -8.625 L 4.03125 -8.625 C 4.644531 -9.425781 5.25 -10 5.84375 -10.34375 C 6.4375 -10.6875 7.0625 -10.859375 7.71875 -10.859375 C 8.5625 -10.859375 9.21875 -10.625 9.6875 -10.15625 C 10.15625 -9.6875 10.390625 -9.023438 10.390625 -8.171875 C 10.390625 -7.765625 10.3125 -7.222656 10.15625 -6.546875 C 9.90625 -5.296875 9.4375 -3.113281 8.75 0 Z M 7.109375 0 "/></g></g></g><g fill="#272f3c" fill-opacity="1"><g transform="translate(258.368849, 113.177234)"><g><path d="M 6.234375 -10.875 C 6.828125 -10.875 7.359375 -10.710938 7.828125 -10.390625 C 8.296875 -10.078125 8.660156 -9.617188 8.921875 -9.015625 L 9.03125 -9.015625 L 9.6875 -10.6875 L 10.921875 -10.6875 L 8.65625 0 L 7.359375 0 L 7.609375 -2.03125 L 7.53125 -2.03125 C 6.363281 -0.550781 5.132812 0.1875 3.84375 0.1875 C 2.945312 0.1875 2.238281 -0.128906 1.71875 -0.765625 C 1.207031 -1.410156 0.953125 -2.289062 0.953125 -3.40625 C 0.953125 -4.757812 1.179688 -6.015625 1.640625 -7.171875 C 2.109375 -8.328125 2.75 -9.234375 3.5625 -9.890625 C 4.375 -10.546875 5.265625 -10.875 6.234375 -10.875 Z M 4.375 -1.15625 C 5.007812 -1.15625 5.640625 -1.457031 6.265625 -2.0625 C 6.890625 -2.664062 7.394531 -3.445312 7.78125 -4.40625 C 8.164062 -5.375 8.359375 -6.34375 8.359375 -7.3125 C 8.359375 -7.976562 8.175781 -8.507812 7.8125 -8.90625 C 7.457031 -9.300781 6.984375 -9.5 6.390625 -9.5 C 5.710938 -9.5 5.082031 -9.21875 4.5 -8.65625 C 3.914062 -8.101562 3.457031 -7.347656 3.125 -6.390625 C 2.789062 -5.441406 2.625 -4.4375 2.625 -3.375 C 2.625 -2.632812 2.773438 -2.078125 3.078125 -1.703125 C 3.390625 -1.335938 3.820312 -1.15625 4.375 -1.15625 Z M 4.375 -1.15625 "/></g></g></g><g fill="#272f3c" fill-opacity="1"><g transform="translate(269.652845, 113.177234)"><g><path d="M 5.3125 0.1875 C 4.6875 0.1875 4.132812 0.0234375 3.65625 -0.296875 C 3.175781 -0.617188 2.804688 -1.070312 2.546875 -1.65625 L 2.453125 -1.65625 L 2.421875 -1.28125 C 2.398438 -1.125 2.363281 -0.898438 2.3125 -0.609375 C 2.269531 -0.316406 1.898438 1.484375 1.203125 4.796875 L -0.421875 4.796875 L 2.859375 -10.6875 L 4.21875 -10.6875 L 3.953125 -8.65625 L 4.03125 -8.65625 C 5.195312 -10.125 6.40625 -10.859375 7.65625 -10.859375 C 8.550781 -10.859375 9.253906 -10.539062 9.765625 -9.90625 C 10.285156 -9.269531 10.546875 -8.382812 10.546875 -7.25 C 10.546875 -5.863281 10.316406 -4.59375 9.859375 -3.4375 C 9.410156 -2.289062 8.789062 -1.398438 8 -0.765625 C 7.207031 -0.128906 6.3125 0.1875 5.3125 0.1875 Z M 7.125 -9.5 C 6.5 -9.5 5.863281 -9.191406 5.21875 -8.578125 C 4.570312 -7.960938 4.054688 -7.1875 3.671875 -6.25 C 3.296875 -5.3125 3.109375 -4.351562 3.109375 -3.375 C 3.109375 -2.65625 3.285156 -2.101562 3.640625 -1.71875 C 4.003906 -1.34375 4.53125 -1.15625 5.21875 -1.15625 C 5.863281 -1.15625 6.460938 -1.414062 7.015625 -1.9375 C 7.566406 -2.46875 8.007812 -3.21875 8.34375 -4.1875 C 8.6875 -5.164062 8.859375 -6.203125 8.859375 -7.296875 C 8.859375 -8.765625 8.28125 -9.5 7.125 -9.5 Z M 7.125 -9.5 "/></g></g></g><g fill="#272f3c" fill-opacity="1"><g transform="translate(281.180661, 113.177234)"><g><path d="M 2.21875 0 L 0.578125 0 L 2.859375 -10.6875 L 4.5 -10.6875 Z M 3.3125 -13.421875 C 3.3125 -13.785156 3.414062 -14.082031 3.625 -14.3125 C 3.832031 -14.539062 4.101562 -14.65625 4.4375 -14.65625 C 5.007812 -14.65625 5.296875 -14.363281 5.296875 -13.78125 C 5.296875 -13.414062 5.1875 -13.109375 4.96875 -12.859375 C 4.75 -12.617188 4.5 -12.5 4.21875 -12.5 C 3.957031 -12.5 3.738281 -12.578125 3.5625 -12.734375 C 3.394531 -12.898438 3.3125 -13.128906 3.3125 -13.421875 Z M 3.3125 -13.421875 "/></g></g></g><g fill="#272f3c" fill-opacity="1"><g transform="translate(286.25212, 113.177234)"><g><path d="M 7.109375 0 L 8.546875 -6.75 C 8.679688 -7.425781 8.75 -7.894531 8.75 -8.15625 C 8.75 -8.5625 8.628906 -8.882812 8.390625 -9.125 C 8.160156 -9.375 7.796875 -9.5 7.296875 -9.5 C 6.710938 -9.5 6.144531 -9.304688 5.59375 -8.921875 C 5.050781 -8.535156 4.566406 -7.976562 4.140625 -7.25 C 3.722656 -6.53125 3.410156 -5.65625 3.203125 -4.625 L 2.21875 0 L 0.578125 0 L 2.859375 -10.6875 L 4.21875 -10.6875 L 4 -8.703125 L 4.09375 -8.703125 C 4.71875 -9.492188 5.320312 -10.050781 5.90625 -10.375 C 6.488281 -10.707031 7.09375 -10.875 7.71875 -10.875 C 8.539062 -10.875 9.191406 -10.648438 9.671875 -10.203125 C 10.148438 -9.753906 10.390625 -9.125 10.390625 -8.3125 C 10.390625 -7.789062 10.3125 -7.203125 10.15625 -6.546875 L 8.765625 0 Z M 7.109375 0 "/></g></g></g><g fill="#272f3c" fill-opacity="1"><g transform="translate(297.779936, 113.177234)"><g><path d="M 10.71875 -10.6875 L 10.484375 -9.640625 L 8.421875 -9.40625 C 8.691406 -9 8.828125 -8.488281 8.828125 -7.875 C 8.828125 -6.625 8.445312 -5.628906 7.6875 -4.890625 C 6.925781 -4.160156 5.914062 -3.796875 4.65625 -3.796875 C 4.289062 -3.796875 4.015625 -3.820312 3.828125 -3.875 C 2.929688 -3.53125 2.484375 -3.101562 2.484375 -2.59375 C 2.484375 -2.320312 2.585938 -2.144531 2.796875 -2.0625 C 3.015625 -1.976562 3.328125 -1.910156 3.734375 -1.859375 L 4.875 -1.71875 C 6.050781 -1.570312 6.90625 -1.285156 7.4375 -0.859375 C 7.96875 -0.429688 8.234375 0.195312 8.234375 1.03125 C 8.234375 2.226562 7.753906 3.15625 6.796875 3.8125 C 5.847656 4.46875 4.515625 4.796875 2.796875 4.796875 C 1.535156 4.796875 0.550781 4.554688 -0.15625 4.078125 C -0.875 3.597656 -1.234375 2.925781 -1.234375 2.0625 C -1.234375 1.375 -1 0.78125 -0.53125 0.28125 C -0.0625 -0.21875 0.691406 -0.644531 1.734375 -1 C 1.222656 -1.257812 0.96875 -1.648438 0.96875 -2.171875 C 0.96875 -2.617188 1.132812 -3.003906 1.46875 -3.328125 C 1.800781 -3.648438 2.265625 -3.953125 2.859375 -4.234375 C 2.453125 -4.441406 2.117188 -4.75 1.859375 -5.15625 C 1.597656 -5.5625 1.46875 -6.035156 1.46875 -6.578125 C 1.46875 -7.835938 1.851562 -8.867188 2.625 -9.671875 C 3.40625 -10.472656 4.398438 -10.875 5.609375 -10.875 C 6.109375 -10.875 6.609375 -10.8125 7.109375 -10.6875 Z M 0.34375 1.90625 C 0.34375 2.40625 0.550781 2.800781 0.96875 3.09375 C 1.394531 3.382812 2.023438 3.53125 2.859375 3.53125 C 4.035156 3.53125 4.957031 3.320312 5.625 2.90625 C 6.289062 2.5 6.625 1.914062 6.625 1.15625 C 6.625 0.757812 6.445312 0.441406 6.09375 0.203125 C 5.75 -0.0234375 5.15625 -0.1875 4.3125 -0.28125 L 2.765625 -0.4375 C 1.984375 -0.269531 1.382812 0.015625 0.96875 0.421875 C 0.550781 0.828125 0.34375 1.320312 0.34375 1.90625 Z M 3.046875 -6.625 C 3.046875 -6.070312 3.191406 -5.648438 3.484375 -5.359375 C 3.773438 -5.078125 4.179688 -4.9375 4.703125 -4.9375 C 5.222656 -4.9375 5.671875 -5.070312 6.046875 -5.34375 C 6.429688 -5.613281 6.726562 -5.988281 6.9375 -6.46875 C 7.144531 -6.945312 7.25 -7.46875 7.25 -8.03125 C 7.25 -8.5625 7.101562 -8.960938 6.8125 -9.234375 C 6.53125 -9.515625 6.125 -9.65625 5.59375 -9.65625 C 5.082031 -9.65625 4.632812 -9.523438 4.25 -9.265625 C 3.875 -9.003906 3.578125 -8.632812 3.359375 -8.15625 C 3.148438 -7.6875 3.046875 -7.175781 3.046875 -6.625 Z M 3.046875 -6.625 "/></g></g></g><g fill="#272f3c" fill-opacity="1"><g transform="translate(307.786314, 113.177234)"><g/></g></g><g fill="#272f3c" fill-opacity="1"><g transform="translate(312.974807, 113.177234)"><g><path d="M 2.515625 0 L 0.84375 0 L 3.84375 -14.25 L 11.015625 -14.25 L 10.71875 -12.765625 L 5.1875 -12.765625 L 4.109375 -7.5625 L 9.265625 -7.5625 L 8.953125 -6.078125 L 3.796875 -6.078125 Z M 2.515625 0 "/></g></g></g><g fill="#272f3c" fill-opacity="1"><g transform="translate(322.40577, 113.177234)"><g><path d="M 4.390625 -10.6875 L 2.9375 -3.90625 C 2.820312 -3.332031 2.765625 -2.878906 2.765625 -2.546875 C 2.765625 -1.617188 3.238281 -1.15625 4.1875 -1.15625 C 4.757812 -1.15625 5.320312 -1.347656 5.875 -1.734375 C 6.425781 -2.128906 6.910156 -2.691406 7.328125 -3.421875 C 7.753906 -4.148438 8.082031 -5.03125 8.3125 -6.0625 L 9.28125 -10.6875 L 10.90625 -10.6875 L 8.65625 0 L 7.296875 0 L 7.5 -1.984375 L 7.390625 -1.984375 C 6.753906 -1.171875 6.144531 -0.601562 5.5625 -0.28125 C 4.988281 0.03125 4.390625 0.1875 3.765625 0.1875 C 2.941406 0.1875 2.289062 -0.0351562 1.8125 -0.484375 C 1.34375 -0.929688 1.109375 -1.578125 1.109375 -2.421875 C 1.109375 -2.816406 1.175781 -3.375 1.3125 -4.09375 L 2.734375 -10.6875 Z M 4.390625 -10.6875 "/></g></g></g><g fill="#272f3c" fill-opacity="1"><g transform="translate(333.933586, 113.177234)"><g><path d="M 3.84375 -1.140625 C 4.207031 -1.140625 4.675781 -1.222656 5.25 -1.390625 L 5.25 -0.140625 C 5.03125 -0.046875 4.757812 0.03125 4.4375 0.09375 C 4.113281 0.15625 3.851562 0.1875 3.65625 0.1875 C 2.84375 0.1875 2.21875 -0.00390625 1.78125 -0.390625 C 1.351562 -0.773438 1.140625 -1.347656 1.140625 -2.109375 C 1.140625 -2.546875 1.195312 -3.035156 1.3125 -3.578125 L 2.546875 -9.453125 L 0.875 -9.453125 L 1.015625 -10.15625 L 2.8125 -10.921875 L 4.03125 -13.140625 L 5 -13.140625 L 4.453125 -10.6875 L 7.125 -10.6875 L 6.875 -9.453125 L 4.21875 -9.453125 L 2.953125 -3.5625 C 2.835938 -2.988281 2.78125 -2.554688 2.78125 -2.265625 C 2.78125 -1.898438 2.875 -1.617188 3.0625 -1.421875 C 3.25 -1.234375 3.507812 -1.140625 3.84375 -1.140625 Z M 3.84375 -1.140625 "/></g></g></g><g fill="#272f3c" fill-opacity="1"><g transform="translate(340.409449, 113.177234)"><g><path d="M 4.390625 -10.6875 L 2.9375 -3.90625 C 2.820312 -3.332031 2.765625 -2.878906 2.765625 -2.546875 C 2.765625 -1.617188 3.238281 -1.15625 4.1875 -1.15625 C 4.757812 -1.15625 5.320312 -1.347656 5.875 -1.734375 C 6.425781 -2.128906 6.910156 -2.691406 7.328125 -3.421875 C 7.753906 -4.148438 8.082031 -5.03125 8.3125 -6.0625 L 9.28125 -10.6875 L 10.90625 -10.6875 L 8.65625 0 L 7.296875 0 L 7.5 -1.984375 L 7.390625 -1.984375 C 6.753906 -1.171875 6.144531 -0.601562 5.5625 -0.28125 C 4.988281 0.03125 4.390625 0.1875 3.765625 0.1875 C 2.941406 0.1875 2.289062 -0.0351562 1.8125 -0.484375 C 1.34375 -0.929688 1.109375 -1.578125 1.109375 -2.421875 C 1.109375 -2.816406 1.175781 -3.375 1.3125 -4.09375 L 2.734375 -10.6875 Z M 4.390625 -10.6875 "/></g></g></g><g fill="#272f3c" fill-opacity="1"><g transform="translate(351.937265, 113.177234)"><g><path d="M 7.328125 -10.875 C 7.773438 -10.875 8.164062 -10.832031 8.5 -10.75 L 8.15625 -9.28125 C 7.8125 -9.363281 7.46875 -9.40625 7.125 -9.40625 C 6.53125 -9.40625 5.972656 -9.207031 5.453125 -8.8125 C 4.941406 -8.425781 4.492188 -7.882812 4.109375 -7.1875 C 3.722656 -6.5 3.4375 -5.734375 3.25 -4.890625 L 2.21875 0 L 0.578125 0 L 2.859375 -10.6875 L 4.21875 -10.6875 L 4 -8.703125 L 4.09375 -8.703125 C 4.5625 -9.328125 4.945312 -9.769531 5.25 -10.03125 C 5.5625 -10.300781 5.882812 -10.507812 6.21875 -10.65625 C 6.550781 -10.800781 6.921875 -10.875 7.328125 -10.875 Z M 7.328125 -10.875 "/></g></g></g><g fill="#272f3c" fill-opacity="1"><g transform="translate(359.84679, 113.177234)"><g><path d="M 4.796875 0.1875 C 3.597656 0.1875 2.65625 -0.164062 1.96875 -0.875 C 1.289062 -1.582031 0.953125 -2.5625 0.953125 -3.8125 C 0.953125 -5.03125 1.191406 -6.203125 1.671875 -7.328125 C 2.160156 -8.453125 2.804688 -9.320312 3.609375 -9.9375 C 4.410156 -10.5625 5.289062 -10.875 6.25 -10.875 C 7.238281 -10.875 7.984375 -10.65625 8.484375 -10.21875 C 8.992188 -9.789062 9.25 -9.191406 9.25 -8.421875 C 9.25 -7.253906 8.707031 -6.335938 7.625 -5.671875 C 6.539062 -5.003906 5 -4.671875 3 -4.671875 L 2.671875 -4.671875 L 2.625 -3.890625 C 2.625 -3.035156 2.820312 -2.367188 3.21875 -1.890625 C 3.625 -1.421875 4.25 -1.1875 5.09375 -1.1875 C 5.5 -1.1875 5.914062 -1.242188 6.34375 -1.359375 C 6.78125 -1.472656 7.320312 -1.6875 7.96875 -2 L 7.96875 -0.578125 C 7.351562 -0.285156 6.8125 -0.0859375 6.34375 0.015625 C 5.875 0.128906 5.359375 0.1875 4.796875 0.1875 Z M 6.15625 -9.484375 C 5.476562 -9.484375 4.847656 -9.175781 4.265625 -8.5625 C 3.679688 -7.957031 3.234375 -7.113281 2.921875 -6.03125 L 3.03125 -6.03125 C 4.507812 -6.03125 5.644531 -6.222656 6.4375 -6.609375 C 7.226562 -6.992188 7.625 -7.550781 7.625 -8.28125 C 7.625 -8.625 7.503906 -8.910156 7.265625 -9.140625 C 7.023438 -9.367188 6.65625 -9.484375 6.15625 -9.484375 Z M 6.15625 -9.484375 "/></g></g></g><g fill="#272f3c" fill-opacity="1"><g transform="translate(369.697124, 113.177234)"><g/></g></g><g fill="#272f3c" fill-opacity="1"><g transform="translate(374.885616, 113.177234)"><g><path d="M 6.59375 0 L 4.96875 -12.640625 L 4.890625 -12.640625 C 4.847656 -12.171875 4.753906 -11.523438 4.609375 -10.703125 C 4.472656 -9.890625 4.351562 -9.242188 4.25 -8.765625 L 2.40625 0 L 0.8125 0 L 3.828125 -14.25 L 6.21875 -14.25 L 7.65625 -2.515625 L 7.75 -2.515625 L 14.171875 -14.25 L 16.765625 -14.25 L 13.8125 0 L 12.125 0 C 12.9375 -3.832031 13.5625 -6.773438 14 -8.828125 C 14.4375 -10.878906 14.742188 -12.15625 14.921875 -12.65625 L 14.859375 -12.65625 L 7.875 0 Z M 6.59375 0 "/></g></g></g><g fill="#272f3c" fill-opacity="1"><g transform="translate(391.601925, 113.177234)"><g><path d="M 2.21875 0 L 0.578125 0 L 2.859375 -10.6875 L 4.5 -10.6875 Z M 3.3125 -13.421875 C 3.3125 -13.785156 3.414062 -14.082031 3.625 -14.3125 C 3.832031 -14.539062 4.101562 -14.65625 4.4375 -14.65625 C 5.007812 -14.65625 5.296875 -14.363281 5.296875 -13.78125 C 5.296875 -13.414062 5.1875 -13.109375 4.96875 -12.859375 C 4.75 -12.617188 4.5 -12.5 4.21875 -12.5 C 3.957031 -12.5 3.738281 -12.578125 3.5625 -12.734375 C 3.394531 -12.898438 3.3125 -13.128906 3.3125 -13.421875 Z M 3.3125 -13.421875 "/></g></g></g><g fill="#272f3c" fill-opacity="1"><g transform="translate(396.673383, 113.177234)"><g><path d="M 7.109375 0 L 8.546875 -6.75 C 8.679688 -7.425781 8.75 -7.894531 8.75 -8.15625 C 8.75 -8.5625 8.628906 -8.882812 8.390625 -9.125 C 8.160156 -9.375 7.796875 -9.5 7.296875 -9.5 C 6.710938 -9.5 6.144531 -9.304688 5.59375 -8.921875 C 5.050781 -8.535156 4.566406 -7.976562 4.140625 -7.25 C 3.722656 -6.53125 3.410156 -5.65625 3.203125 -4.625 L 2.21875 0 L 0.578125 0 L 2.859375 -10.6875 L 4.21875 -10.6875 L 4 -8.703125 L 4.09375 -8.703125 C 4.71875 -9.492188 5.320312 -10.050781 5.90625 -10.375 C 6.488281 -10.707031 7.09375 -10.875 7.71875 -10.875 C 8.539062 -10.875 9.191406 -10.648438 9.671875 -10.203125 C 10.148438 -9.753906 10.390625 -9.125 10.390625 -8.3125 C 10.390625 -7.789062 10.3125 -7.203125 10.15625 -6.546875 L 8.765625 0 Z M 7.109375 0 "/></g></g></g><g fill="#272f3c" fill-opacity="1"><g transform="translate(408.2012, 113.177234)"><g><path d="M 6.234375 -10.859375 C 7.492188 -10.859375 8.40625 -10.242188 8.96875 -9.015625 L 9.0625 -9.015625 C 9.175781 -10.015625 9.320312 -10.90625 9.5 -11.6875 L 10.265625 -15.171875 L 11.890625 -15.171875 L 8.671875 0 L 7.3125 0 L 7.53125 -2.03125 L 7.453125 -2.03125 C 6.796875 -1.21875 6.179688 -0.644531 5.609375 -0.3125 C 5.035156 0.0195312 4.441406 0.1875 3.828125 0.1875 C 2.929688 0.1875 2.226562 -0.128906 1.71875 -0.765625 C 1.207031 -1.398438 0.953125 -2.28125 0.953125 -3.40625 C 0.953125 -4.800781 1.1875 -6.078125 1.65625 -7.234375 C 2.125 -8.390625 2.753906 -9.28125 3.546875 -9.90625 C 4.347656 -10.539062 5.242188 -10.859375 6.234375 -10.859375 Z M 4.375 -1.15625 C 4.988281 -1.15625 5.617188 -1.457031 6.265625 -2.0625 C 6.921875 -2.675781 7.4375 -3.457031 7.8125 -4.40625 C 8.195312 -5.351562 8.390625 -6.316406 8.390625 -7.296875 C 8.390625 -8.015625 8.210938 -8.5625 7.859375 -8.9375 C 7.503906 -9.3125 6.992188 -9.5 6.328125 -9.5 C 5.671875 -9.5 5.0625 -9.226562 4.5 -8.6875 C 3.9375 -8.15625 3.484375 -7.40625 3.140625 -6.4375 C 2.796875 -5.46875 2.625 -4.445312 2.625 -3.375 C 2.625 -1.894531 3.207031 -1.15625 4.375 -1.15625 Z M 4.375 -1.15625 "/></g></g></g><g fill="#272f3c" fill-opacity="1"><g transform="translate(419.729016, 113.177234)"><g><path d="M 7.171875 -3.03125 C 7.171875 -2.019531 6.8125 -1.226562 6.09375 -0.65625 C 5.375 -0.09375 4.359375 0.1875 3.046875 0.1875 C 1.953125 0.1875 0.960938 -0.0351562 0.078125 -0.484375 L 0.078125 -2.015625 C 0.535156 -1.742188 1.023438 -1.53125 1.546875 -1.375 C 2.078125 -1.226562 2.566406 -1.15625 3.015625 -1.15625 C 3.828125 -1.15625 4.441406 -1.316406 4.859375 -1.640625 C 5.273438 -1.972656 5.484375 -2.390625 5.484375 -2.890625 C 5.484375 -3.265625 5.367188 -3.578125 5.140625 -3.828125 C 4.921875 -4.085938 4.429688 -4.4375 3.671875 -4.875 C 2.828125 -5.351562 2.226562 -5.816406 1.875 -6.265625 C 1.53125 -6.722656 1.359375 -7.265625 1.359375 -7.890625 C 1.359375 -8.785156 1.6875 -9.503906 2.34375 -10.046875 C 3 -10.597656 3.863281 -10.875 4.9375 -10.875 C 6.039062 -10.875 7.113281 -10.632812 8.15625 -10.15625 L 7.625 -8.828125 L 7.078125 -9.0625 C 6.421875 -9.34375 5.707031 -9.484375 4.9375 -9.484375 C 4.332031 -9.484375 3.859375 -9.34375 3.515625 -9.0625 C 3.171875 -8.78125 3 -8.414062 3 -7.96875 C 3 -7.601562 3.113281 -7.289062 3.34375 -7.03125 C 3.570312 -6.769531 4.046875 -6.4375 4.765625 -6.03125 C 5.460938 -5.632812 5.960938 -5.296875 6.265625 -5.015625 C 6.566406 -4.742188 6.789062 -4.445312 6.9375 -4.125 C 7.09375 -3.800781 7.171875 -3.4375 7.171875 -3.03125 Z M 7.171875 -3.03125 "/></g></g></g></svg>