<?xml version="1.0" standalone="no"?>
<!DOCTYPE svg PUBLIC "-//W3C//DTD SVG 20010904//EN"
 "http://www.w3.org/TR/2001/REC-SVG-20010904/DTD/svg10.dtd">
<svg version="1.0" xmlns="http://www.w3.org/2000/svg"
 width="500.000000pt" height="500.000000pt" viewBox="0 0 500.000000 500.000000"
 preserveAspectRatio="xMidYMid meet">
<metadata>
Created by potrace 1.14, written by Peter Selinger 2001-2017
</metadata>
<g transform="translate(0.000000,500.000000) scale(0.100000,-0.100000)"
fill="#000000" stroke="none">
<path d="M1728 4623 c-128 -32 -254 -120 -326 -228 -109 -165 -122 -347 -41
-553 12 -28 11 -37 -5 -66 -20 -38 -48 -53 -90 -50 -30 3 -76 39 -76 60 0 6
-7 25 -15 40 -18 35 -43 151 -48 219 l-3 50 -44 -3 c-57 -5 -158 -45 -236 -94
-141 -88 -252 -252 -290 -429 -12 -59 -5 -251 11 -267 2 -3 53 -6 112 -7 123
-2 189 -18 302 -74 91 -44 235 -180 270 -252 21 -45 21 -48 5 -82 -36 -75
-102 -67 -166 21 -48 66 -48 65 -109 114 -127 104 -317 134 -483 78 -39 -13
-104 -98 -157 -205 -143 -292 -102 -646 106 -898 46 -56 149 -146 211 -184 19
-11 19 -12 0 -45 -59 -103 -81 -274 -49 -382 35 -118 122 -234 221 -293 63
-38 174 -73 190 -61 6 6 12 15 12 20 0 24 57 149 95 208 140 218 406 365 642
355 43 -2 60 -8 79 -27 47 -46 31 -128 -29 -153 -18 -7 -35 -11 -39 -9 -15 10
-8 -18 12 -46 47 -66 82 -183 81 -273 0 -70 -17 -101 -65 -117 -29 -9 -41 -8
-70 5 -40 19 -53 47 -60 134 -7 81 -46 161 -100 207 -45 38 -46 38 -121 -12
-161 -106 -262 -296 -260 -490 1 -101 25 -146 135 -256 133 -131 286 -190 480
-184 223 7 404 111 525 301 l35 54 0 726 0 727 -37 46 c-96 117 -223 203 -338
228 -110 24 -102 26 -146 -25 -64 -74 -101 -159 -106 -243 -6 -83 -21 -114
-65 -132 -37 -16 -67 -11 -104 19 -26 21 -29 29 -32 99 -3 60 1 93 18 149 13
40 28 78 33 85 13 17 -13 16 -38 -2 -47 -33 -97 -56 -121 -56 -62 0 -113 64
-98 124 14 55 150 136 298 177 84 22 233 30 334 16 110 -15 269 -82 353 -148
20 -16 40 -29 43 -29 3 0 6 403 6 896 l0 895 -27 47 c-60 105 -155 194 -254
240 -105 48 -252 62 -361 35z"/>
<path d="M3061 4590 c-64 -15 -187 -70 -224 -100 -62 -50 -95 -81 -131 -129
-83 -107 -76 -34 -76 -842 l0 -721 43 -52 c117 -141 218 -201 409 -240 22 -5
33 1 66 39 69 79 103 155 110 248 5 72 8 85 33 109 30 31 92 39 121 16 64 -52
65 -188 3 -332 l-16 -38 48 27 c93 54 103 57 139 51 87 -17 109 -118 40 -179
-43 -39 -206 -109 -293 -127 -108 -23 -266 -20 -368 5 -86 22 -218 83 -279
130 -25 19 -48 35 -51 35 -3 0 -5 -404 -5 -899 l0 -898 48 -74 c114 -174 279
-262 480 -255 157 5 279 59 386 171 137 144 187 386 117 560 -5 11 -13 31 -18
45 -15 36 -7 79 17 105 46 49 116 32 150 -35 29 -56 58 -175 62 -249 3 -68 1
-66 80 -50 298 63 522 364 502 674 -4 61 -11 105 -17 111 -2 2 -55 6 -118 8
-155 5 -261 38 -374 116 -109 76 -215 214 -207 269 5 38 44 71 82 71 27 0 80
-33 80 -51 0 -29 118 -140 190 -178 110 -59 254 -77 366 -47 71 19 79 24 129
91 67 90 132 237 150 342 13 71 12 221 -1 295 -40 224 -173 430 -353 547 l-58
37 29 53 c42 78 61 170 55 266 -10 149 -74 268 -194 363 -55 43 -148 83 -197
85 -38 2 -40 1 -52 -41 -41 -139 -153 -293 -284 -390 -56 -42 -188 -109 -229
-117 -12 -2 -31 -7 -41 -10 -64 -20 -196 -29 -230 -15 -51 21 -69 94 -37 144
10 15 33 30 57 36 l40 11 -24 32 c-26 34 -62 111 -72 155 -13 57 -16 180 -4
202 14 26 71 52 97 44 66 -21 78 -41 87 -141 8 -97 49 -175 116 -223 l30 -21
59 35 c171 104 287 323 276 521 -4 69 -10 86 -66 161 -78 106 -238 216 -349
240 -19 4 -42 10 -50 12 -47 13 -211 9 -279 -8z"/>
</g>
</svg>
